# xmcd CD database file generated by Grip 3.2.0
# 
# Track frame offsets:
#       150
#       31339
#       44450
#       61715
#       74680
#       96584
#       109186
#       128083
#       149479
#       176548
#       198495
#       212473
#       228407
#       243297
#       259910
#       276269
#       295941
#       314373
# 
# Disc length: 4404 seconds
# 
# Revision: 7
# Processed by: cddbd v1.5.1PL0 Copyright (c) Steve Scherf et al.
# Submitted via: Grip 3.2.0
# 
DISCID=18113212
DTITLE=The Temptations - Psychedelic Soul
DYEAR=2000
DGENRE=Blues
TTITLE0=Papa Was A Rollin' Stone
TTITLE1=I Can't Get Next To You
TTITLE2=Psychedelic Shack
TTITLE3=Superstar (Remember How You Got Where You Are)
TTITLE4=Run Away Child Running Wild
TTITLE5=You Make Your Own Heaven And Hell Right Here On Earth
TTITLE6=Ungena Za Ulimwengu (Unite The World)
TTITLE7=Don't Let The Joneses Get You Down
TTITLE8=Message From A Black Man
TTITLE9=Law Of The Land
TTITLE10=Funky Music Sho Nuff Turns Me On
TTITLE11=Smiling Faces Sometimes
TTITLE12=Shakey Ground
TTITLE13=You've Got My Soul On Fire
TTITLE14=Happy People
TTITLE15=Masterpiece
TTITLE16=Ball Of Confusion (That's What The World Is Today)
TTITLE17=Cloud Nine
EXTD=ID3G:   0
EXTT0=
EXTT1=
EXTT2=
EXTT3=
EXTT4=
EXTT5=
EXTT6=
EXTT7=
EXTT8=
EXTT9=
EXTT10=
EXTT11=
EXTT12=
EXTT13=
EXTT14=
EXTT15=
EXTT16=
EXTT17=
PLAYORDER=
